<?xml version="1.0" encoding="UTF-8"?>
<!DOCTYPE svg PUBLIC "-//W3C//DTD SVG 1.1//EN" "http://www.w3.org/Graphics/SVG/1.1/DTD/svg11.dtd">
<svg xmlns="http://www.w3.org/2000/svg" version="1.1" width="212px" height="207px" style="shape-rendering:geometricPrecision; text-rendering:geometricPrecision; image-rendering:optimizeQuality; fill-rule:evenodd; clip-rule:evenodd" xmlns:xlink="http://www.w3.org/1999/xlink">
<g><path style="opacity:1" fill="#b48f37" d="M 96.5,86.5 C 96.1667,86.5 95.8333,86.5 95.5,86.5C 93.5161,87.619 91.6828,87.2856 90,85.5C 87.9655,86.9442 87.1322,88.9442 87.5,91.5C 89.3797,91.2291 90.713,91.8958 91.5,93.5C 90.5084,93.3284 89.8417,93.6618 89.5,94.5C 88.9213,97.3311 87.588,99.6644 85.5,101.5C 86.4612,98.6717 86.2946,96.0051 85,93.5C 82.9838,94.9552 82.1505,96.9552 82.5,99.5C 81.5,99.5 80.5,99.5 79.5,99.5C 79.1667,99.5 78.8333,99.5 78.5,99.5C 82.0308,93.6105 85.6974,87.7772 89.5,82C 90.8333,81.3333 92.1667,81.3333 93.5,82C 94.3862,83.6147 95.3862,85.1147 96.5,86.5 Z"/></g>
<g><path style="opacity:1" fill="#af8f3d" d="M 135.5,94.5 C 134.341,93.5442 133.174,92.5442 132,91.5C 130.605,91.7804 129.438,92.4471 128.5,93.5C 129.456,95.0754 130.123,96.742 130.5,98.5C 129.173,97.1999 127.84,95.8665 126.5,94.5C 125.712,95.7701 124.712,96.7701 123.5,97.5C 124.038,95.8828 124.371,94.2161 124.5,92.5C 125.93,92.5792 127.264,92.2458 128.5,91.5C 129.474,89.2573 129.808,86.924 129.5,84.5C 126.723,83.4719 124.39,83.8053 122.5,85.5C 123.128,82.0451 125.128,80.8785 128.5,82C 131.238,85.9788 133.571,90.1454 135.5,94.5 Z"/></g>
<g><path style="opacity:1" fill="#b98d30" d="M 95.5,86.5 C 97.1578,91.1621 98.8244,95.8288 100.5,100.5C 100.945,105.049 98.9448,107.383 94.5,107.5C 95.2209,104.183 95.3876,100.849 95,97.5C 94.5017,95.4556 93.335,94.1223 91.5,93.5C 90.713,91.8958 89.3797,91.2291 87.5,91.5C 87.1322,88.9442 87.9655,86.9442 90,85.5C 91.6828,87.2856 93.5161,87.619 95.5,86.5 Z"/></g>
<g><path style="opacity:1" fill="#b78c34" d="M 123.5,97.5 C 122.167,99.5 122.167,101.5 123.5,103.5C 122.265,103.721 121.265,104.388 120.5,105.5C 119.815,103.219 119.649,100.886 120,98.5C 119.28,96.9443 118.113,95.9443 116.5,95.5C 118.137,91.8822 120.137,88.5488 122.5,85.5C 124.39,83.8053 126.723,83.4719 129.5,84.5C 129.808,86.924 129.474,89.2573 128.5,91.5C 127.264,92.2458 125.93,92.5792 124.5,92.5C 124.371,94.2161 124.038,95.8828 123.5,97.5 Z"/></g>
<g><path style="opacity:1" fill="#b78e31" d="M 135.5,94.5 C 136.338,94.8417 136.672,95.5084 136.5,96.5C 137.746,99.7332 138.246,103.066 138,106.5C 137.014,107.171 135.847,107.171 134.5,106.5C 132.733,104.062 131.399,101.395 130.5,98.5C 130.123,96.742 129.456,95.0754 128.5,93.5C 129.438,92.4471 130.605,91.7804 132,91.5C 133.174,92.5442 134.341,93.5442 135.5,94.5 Z"/></g>
<g><path style="opacity:1" fill="#bb8c2f" d="M 85.5,101.5 C 82.386,102.785 80.5526,105.119 80,108.5C 78.1825,105.584 78.0158,102.584 79.5,99.5C 80.5,99.5 81.5,99.5 82.5,99.5C 82.1505,96.9552 82.9838,94.9552 85,93.5C 86.2946,96.0051 86.4612,98.6717 85.5,101.5 Z"/></g>
<g><path style="opacity:1" fill="#b68e30" d="M 116.5,95.5 C 118.113,95.9443 119.28,96.9443 120,98.5C 119.649,100.886 119.815,103.219 120.5,105.5C 121.265,104.388 122.265,103.721 123.5,103.5C 124.338,103.842 124.672,104.508 124.5,105.5C 124.981,109.349 123.314,111.349 119.5,111.5C 114.782,106.774 113.782,101.441 116.5,95.5 Z"/></g>
<g><path style="opacity:1" fill="#b58e3b" d="M 136.5,96.5 C 141.334,103.496 145.667,110.829 149.5,118.5C 147.621,117.659 145.621,117.325 143.5,117.5C 143.5,118.833 143.5,120.167 143.5,121.5C 140.263,116.701 137.263,111.701 134.5,106.5C 135.847,107.171 137.014,107.171 138,106.5C 138.246,103.066 137.746,99.7332 136.5,96.5 Z"/></g>
<g><path style="opacity:1" fill="#b38d3b" d="M 78.5,99.5 C 78.8333,99.5 79.1667,99.5 79.5,99.5C 78.0158,102.584 78.1825,105.584 80,108.5C 80.5526,105.119 82.386,102.785 85.5,101.5C 82.5876,108.332 78.9209,114.666 74.5,120.5C 74.655,116.88 75.655,113.546 77.5,110.5C 76.0172,108.054 74.8505,108.388 74,111.5C 73.5357,110.906 73.369,110.239 73.5,109.5C 75.1373,106.183 76.8039,102.85 78.5,99.5 Z"/></g>
<g><path style="opacity:1" fill="#b08d3c" d="M 95.5,86.5 C 95.8333,86.5 96.1667,86.5 96.5,86.5C 99.076,90.9782 101.076,95.6449 102.5,100.5C 101.824,105.515 99.8236,109.849 96.5,113.5C 95.2101,114.058 94.3768,115.058 94,116.5C 94.0704,113.008 93.2371,110.008 91.5,107.5C 94.788,103.704 95.1213,99.7037 92.5,95.5C 91.675,94.6143 90.675,94.281 89.5,94.5C 89.8417,93.6618 90.5084,93.3284 91.5,93.5C 93.335,94.1223 94.5017,95.4556 95,97.5C 95.3876,100.849 95.2209,104.183 94.5,107.5C 98.9448,107.383 100.945,105.049 100.5,100.5C 98.8244,95.8288 97.1578,91.1621 95.5,86.5 Z"/></g>
<g><path style="opacity:1" fill="#b48e36" d="M 124.5,105.5 C 127,108.494 129,111.827 130.5,115.5C 129.527,117.948 129.194,120.615 129.5,123.5C 128.5,123.5 127.5,123.5 126.5,123.5C 124.167,119.5 121.833,115.5 119.5,111.5C 123.314,111.349 124.981,109.349 124.5,105.5 Z"/></g>
<g><path style="opacity:1" fill="#b18e34" d="M 117.5,124.5 C 116.5,124.5 115.5,124.5 114.5,124.5C 114.785,122.712 114.452,121.045 113.5,119.5C 112.478,119.855 111.811,120.522 111.5,121.5C 109.824,120.817 109.157,119.483 109.5,117.5C 108.5,117.5 107.5,117.5 106.5,117.5C 106.5,116.5 106.5,115.5 106.5,114.5C 107.659,112.623 109.326,112.123 111.5,113C 114.163,116.494 116.163,120.327 117.5,124.5 Z"/></g>
<g><path style="opacity:1" fill="#b58f35" d="M 74.5,120.5 C 71.7674,126.298 68.7674,131.965 65.5,137.5C 65.0667,134.741 63.4,133.408 60.5,133.5C 60.9118,135.973 59.9118,137.306 57.5,137.5C 62.3309,127.833 67.6643,118.5 73.5,109.5C 73.369,110.239 73.5357,110.906 74,111.5C 74.8505,108.388 76.0172,108.054 77.5,110.5C 75.655,113.546 74.655,116.88 74.5,120.5 Z"/></g>
<g><path style="opacity:1" fill="#b38d38" d="M 91.5,107.5 C 93.2371,110.008 94.0704,113.008 94,116.5C 94.3768,115.058 95.2101,114.058 96.5,113.5C 94.3357,118.5 91.669,123.167 88.5,127.5C 89.3635,125.105 89.3635,122.771 88.5,120.5C 87.135,121.807 85.8016,121.807 84.5,120.5C 86.4394,115.91 88.7728,111.577 91.5,107.5 Z"/></g>
<g><path style="opacity:1" fill="#b38c3a" d="M 106.5,114.5 C 106.5,115.5 106.5,116.5 106.5,117.5C 107.5,117.5 108.5,117.5 109.5,117.5C 109.157,119.483 109.824,120.817 111.5,121.5C 111.631,122.239 111.464,122.906 111,123.5C 109.295,122.237 107.628,121.903 106,122.5C 105.667,121.833 105.333,121.167 105,120.5C 103.562,121.9 102.729,123.567 102.5,125.5C 104.167,125.5 105.833,125.5 107.5,125.5C 106.071,128.696 104.405,131.696 102.5,134.5C 102.318,132.409 102.652,130.409 103.5,128.5C 100.783,124.633 99.2829,125.3 99,130.5C 97.8873,131.305 96.7206,131.972 95.5,132.5C 98.3808,125.967 102.047,119.967 106.5,114.5 Z"/></g>
<g><path style="opacity:1" fill="#b8902e" d="M 117.5,124.5 C 117.62,127.205 116.62,127.872 114.5,126.5C 113.808,127.025 113.308,127.692 113,128.5C 112.578,126.574 111.411,125.574 109.5,125.5C 108.833,125.5 108.167,125.5 107.5,125.5C 105.833,125.5 104.167,125.5 102.5,125.5C 102.729,123.567 103.562,121.9 105,120.5C 105.333,121.167 105.667,121.833 106,122.5C 107.628,121.903 109.295,122.237 111,123.5C 111.464,122.906 111.631,122.239 111.5,121.5C 111.811,120.522 112.478,119.855 113.5,119.5C 114.452,121.045 114.785,122.712 114.5,124.5C 115.5,124.5 116.5,124.5 117.5,124.5 Z"/></g>
<g><path style="opacity:1" fill="#b68e36" d="M 130.5,115.5 C 134.558,121.57 138.225,127.903 141.5,134.5C 141.785,136.288 141.452,137.955 140.5,139.5C 139.808,138.975 139.308,138.308 139,137.5C 138.692,138.308 138.192,138.975 137.5,139.5C 136.735,138.388 135.735,137.721 134.5,137.5C 131.433,133.091 128.767,128.424 126.5,123.5C 127.5,123.5 128.5,123.5 129.5,123.5C 129.194,120.615 129.527,117.948 130.5,115.5 Z"/></g>
<g><path style="opacity:1" fill="#b58e33" d="M 84.5,120.5 C 85.8016,121.807 87.135,121.807 88.5,120.5C 89.3635,122.771 89.3635,125.105 88.5,127.5C 87.6006,130.395 86.2672,133.062 84.5,135.5C 81.851,133.588 80.5176,130.921 80.5,127.5C 81.0787,124.669 82.412,122.336 84.5,120.5 Z"/></g>
<g><path style="opacity:1" fill="#b38f3a" d="M 149.5,118.5 C 152.669,122.833 155.336,127.5 157.5,132.5C 154.994,131.185 153.161,129.185 152,126.5C 149.711,129.09 150.211,130.923 153.5,132C 152.978,132.561 152.645,133.228 152.5,134C 153.731,136.684 155.064,139.184 156.5,141.5C 155.733,142.172 155.066,143.005 154.5,144C 151.518,144.498 148.518,144.665 145.5,144.5C 145.5,143.5 145.5,142.5 145.5,141.5C 148.583,144.08 151.583,144.08 154.5,141.5C 150.809,134.779 147.142,128.112 143.5,121.5C 143.5,120.167 143.5,118.833 143.5,117.5C 145.621,117.325 147.621,117.659 149.5,118.5 Z"/></g>
<g><path style="opacity:1" fill="#b59039" d="M 117.5,124.5 C 122.486,129.471 124.986,135.471 125,142.5C 123.601,143.227 122.101,143.727 120.5,144C 114.843,144.499 109.176,144.666 103.5,144.5C 106.706,142.936 108.04,140.269 107.5,136.5C 109.89,136.087 112.223,135.421 114.5,134.5C 113.075,131.312 111.408,128.312 109.5,125.5C 111.411,125.574 112.578,126.574 113,128.5C 113.308,127.692 113.808,127.025 114.5,126.5C 116.62,127.872 117.62,127.205 117.5,124.5 Z"/></g>
<g><path style="opacity:1" fill="#b88d2e" d="M 157.5,132.5 C 157.511,134.547 157.844,136.547 158.5,138.5C 159.84,139.99 160.84,141.656 161.5,143.5C 161.631,144.376 161.298,145.043 160.5,145.5C 159.479,143.812 158.145,142.479 156.5,141.5C 155.064,139.184 153.731,136.684 152.5,134C 152.645,133.228 152.978,132.561 153.5,132C 150.211,130.923 149.711,129.09 152,126.5C 153.161,129.185 154.994,131.185 157.5,132.5 Z"/></g>
<g><path style="opacity:1" fill="#b58b37" d="M 80.5,127.5 C 80.5176,130.921 81.851,133.588 84.5,135.5C 84.0679,136.71 83.4013,137.71 82.5,138.5C 81.5,138.5 80.5,138.5 79.5,138.5C 79.7373,139.791 79.404,140.791 78.5,141.5C 77.9573,138.782 77.2906,136.115 76.5,133.5C 77.3507,131.118 78.684,129.118 80.5,127.5 Z"/></g>
<g><path style="opacity:1" fill="#b78f2e" d="M 102.5,134.5 C 102.5,134.833 102.5,135.167 102.5,135.5C 101.837,137.042 101.17,138.709 100.5,140.5C 99.5481,138.955 99.2148,137.288 99.5,135.5C 98.1667,135.5 96.8333,135.5 95.5,135.5C 95.5,134.5 95.5,133.5 95.5,132.5C 96.7206,131.972 97.8873,131.305 99,130.5C 99.2829,125.3 100.783,124.633 103.5,128.5C 102.652,130.409 102.318,132.409 102.5,134.5 Z"/></g>
<g><path style="opacity:1" fill="#b79133" d="M 95.5,132.5 C 95.5,133.5 95.5,134.5 95.5,135.5C 96.8333,135.5 98.1667,135.5 99.5,135.5C 99.2148,137.288 99.5481,138.955 100.5,140.5C 101.17,138.709 101.837,137.042 102.5,135.5C 104.292,135.366 105.958,135.699 107.5,136.5C 108.04,140.269 106.706,142.936 103.5,144.5C 99.8052,144.021 96.1386,143.688 92.5,143.5C 91.4579,139.339 92.4579,135.672 95.5,132.5 Z"/></g>
<g><path style="opacity:1" fill="#b09046" d="M 157.5,132.5 C 161.939,137.364 164.105,143.031 164,149.5C 156.914,150.646 149.747,150.812 142.5,150C 141.944,149.617 141.611,149.117 141.5,148.5C 148.833,148.5 156.167,148.5 163.5,148.5C 163.923,146.219 163.256,144.552 161.5,143.5C 160.84,141.656 159.84,139.99 158.5,138.5C 157.844,136.547 157.511,134.547 157.5,132.5 Z"/></g>
<g><path style="opacity:1" fill="#b48e3a" d="M 141.5,134.5 C 142.737,135.965 143.737,137.632 144.5,139.5C 142.69,142.197 141.69,145.197 141.5,148.5C 138.931,145.039 136.597,141.372 134.5,137.5C 135.735,137.721 136.735,138.388 137.5,139.5C 138.192,138.975 138.692,138.308 139,137.5C 139.308,138.308 139.808,138.975 140.5,139.5C 141.452,137.955 141.785,136.288 141.5,134.5 Z"/></g>
<g><path style="opacity:1" fill="#b98e2c" d="M 65.5,137.5 C 65.5,138.167 65.1667,138.5 64.5,138.5C 63.5,138.5 62.5,138.5 61.5,138.5C 61.5,140.167 61.5,141.833 61.5,143.5C 60.325,143.281 59.325,143.614 58.5,144.5C 59,144.833 59.5,145.167 60,145.5C 63.1052,144.633 66.2719,144.299 69.5,144.5C 69.5,145.5 69.5,146.5 69.5,147.5C 71.5,147.167 73.5,146.833 75.5,146.5C 75.0296,147.693 74.0296,148.36 72.5,148.5C 70.1817,148.997 67.8484,149.33 65.5,149.5C 65.762,148.022 65.4287,146.689 64.5,145.5C 63.6143,146.325 63.281,147.325 63.5,148.5C 61.0799,148.708 58.7466,148.374 56.5,147.5C 56.1667,146.833 55.8333,146.167 55.5,145.5C 56.1712,142.815 56.8379,140.148 57.5,137.5C 59.9118,137.306 60.9118,135.973 60.5,133.5C 63.4,133.408 65.0667,134.741 65.5,137.5 Z"/></g>
<g><path style="opacity:1" fill="#b78e33" d="M 76.5,133.5 C 77.2906,136.115 77.9573,138.782 78.5,141.5C 77.3604,143.045 76.3604,144.712 75.5,146.5C 73.5,146.833 71.5,147.167 69.5,147.5C 69.5,146.5 69.5,145.5 69.5,144.5C 66.2719,144.299 63.1052,144.633 60,145.5C 59.5,145.167 59,144.833 58.5,144.5C 59.325,143.614 60.325,143.281 61.5,143.5C 61.5,141.833 61.5,140.167 61.5,138.5C 62.5,138.5 63.5,138.5 64.5,138.5C 62.9315,143.082 64.5981,144.582 69.5,143C 72.4529,140.248 74.7863,137.082 76.5,133.5 Z"/></g>
<g><path style="opacity:1" fill="#b88f2f" d="M 144.5,139.5 C 145.338,139.842 145.672,140.508 145.5,141.5C 145.5,142.5 145.5,143.5 145.5,144.5C 148.518,144.665 151.518,144.498 154.5,144C 155.066,143.005 155.733,142.172 156.5,141.5C 158.145,142.479 159.479,143.812 160.5,145.5C 161.298,145.043 161.631,144.376 161.5,143.5C 163.256,144.552 163.923,146.219 163.5,148.5C 156.167,148.5 148.833,148.5 141.5,148.5C 141.69,145.197 142.69,142.197 144.5,139.5 Z"/></g>
<g><path style="opacity:1" fill="#b18f43" d="M 57.5,137.5 C 56.8379,140.148 56.1712,142.815 55.5,145.5C 55.8333,146.167 56.1667,146.833 56.5,147.5C 58.7466,148.374 61.0799,148.708 63.5,148.5C 63.281,147.325 63.6143,146.325 64.5,145.5C 65.4287,146.689 65.762,148.022 65.5,149.5C 67.8484,149.33 70.1817,148.997 72.5,148.5C 74.0296,148.36 75.0296,147.693 75.5,146.5C 76.3604,144.712 77.3604,143.045 78.5,141.5C 79.404,140.791 79.7373,139.791 79.5,138.5C 80.5,138.5 81.5,138.5 82.5,138.5C 80.3922,142.448 78.0589,146.281 75.5,150C 67.9201,150.813 60.4201,150.647 53,149.5C 52.5448,144.747 54.0448,140.747 57.5,137.5 Z"/></g>
</svg>
